<?xml version="1.0" encoding="utf-8"?>
<!-- Generator: Adobe Illustrator 21.0.0, SVG Export Plug-In . SVG Version: 6.00 Build 0)  -->
<svg version="1.1" xmlns="http://www.w3.org/2000/svg" xmlns:xlink="http://www.w3.org/1999/xlink" x="0px" y="0px"
	 viewBox="0 0 505.9 505.9" style="enable-background:new 0 0 505.9 505.9;" xml:space="preserve">
<style type="text/css">
	.st0{fill:url(#SVGID_1_);}
	.st1{fill:#FFFFFF;}
	.st2{fill:url(#SVGID_2_);}
	.st3{fill:url(#SVGID_3_);}
</style>
<g id="Icon">
	<g>
		<g>
			<g>
				
					<image style="overflow:visible;opacity:0.3;" width="2108" height="2108" xlink:href="36A88A14B5EBAEFE.png"  transform="matrix(0.24 0 0 0.24 0 0)">
				</image>
				<g>
					
						<radialGradient id="SVGID_1_" cx="277.7455" cy="276.5837" r="546.993" fx="763.9507" fy="84.5314" gradientTransform="matrix(-0.7071 0.7071 -0.5657 -0.5657 630.6005 236.6474)" gradientUnits="userSpaceOnUse">
						<stop  offset="0.166" style="stop-color:#F9ED32"/>
						<stop  offset="0.2158" style="stop-color:#F7E536"/>
						<stop  offset="0.2915" style="stop-color:#F2D03F"/>
						<stop  offset="0.3835" style="stop-color:#EBAE50"/>
						<stop  offset="0.4884" style="stop-color:#E07F66"/>
						<stop  offset="0.6027" style="stop-color:#D24282"/>
						<stop  offset="0.6453" style="stop-color:#CC2A8E"/>
						<stop  offset="0.6795" style="stop-color:#BE2A96"/>
						<stop  offset="0.7439" style="stop-color:#9A2AAA"/>
						<stop  offset="0.8315" style="stop-color:#602ACA"/>
						<stop  offset="0.9379" style="stop-color:#102AF6"/>
						<stop  offset="0.9587" style="stop-color:#002AFF"/>
					</radialGradient>
					<path class="st0" d="M249.9,478.7L249.9,478.7C124,478.7,21,375.7,21,249.9v0C21,124,124,21,249.9,21h0
						c125.9,0,228.9,103,228.9,228.9v0C478.7,375.7,375.7,478.7,249.9,478.7z"/>
				</g>
			</g>
		</g>
		<g>
			<path class="st1" d="M335.7,163.5H164c-5.3,0-9.5,4.3-9.5,9.5v151l60-59.9c3.7-3.7,9.8-3.7,13.5,0c0,0,0,0,0,0l50.5,50.5
				l21.9-21.9c3.7-3.7,9.8-3.7,13.5,0c0,0,0,0,0,0l31.4,31.4V173C345.2,167.8,341,163.5,335.7,163.5z M292.8,234.5
				c-13.2,0-23.8-10.7-23.8-23.8c0-13.2,10.7-23.8,23.8-23.8s23.8,10.7,23.8,23.8C316.6,223.8,305.9,234.5,292.8,234.5z"/>
			<path class="st1" d="M249.9,38.2C133,38.2,38.2,133,38.2,249.9S133,461.5,249.9,461.5s211.6-94.7,211.6-211.6
				S366.7,38.2,249.9,38.2z M364.3,332.9c0,15.8-12.8,28.6-28.6,28.6H164c-15.8,0-28.6-12.8-28.6-28.6V173
				c0-15.8,12.8-28.6,28.6-28.6h171.6c15.8,0,28.6,12.8,28.6,28.6V332.9z"/>
		</g>
	</g>
</g>
<g id="Assets">
	
		<radialGradient id="SVGID_2_" cx="-323.8917" cy="-143.4859" r="546.993" fx="162.3136" fy="-335.5381" gradientTransform="matrix(-0.7071 0.7071 -0.5657 -0.5657 -634.0855 4.3723)" gradientUnits="userSpaceOnUse">
		<stop  offset="0.166" style="stop-color:#F9ED32"/>
		<stop  offset="0.2158" style="stop-color:#F7E536"/>
		<stop  offset="0.2915" style="stop-color:#F2D03F"/>
		<stop  offset="0.3835" style="stop-color:#EBAE50"/>
		<stop  offset="0.4884" style="stop-color:#E07F66"/>
		<stop  offset="0.6027" style="stop-color:#D24282"/>
		<stop  offset="0.6453" style="stop-color:#CC2A8E"/>
		<stop  offset="0.6795" style="stop-color:#BE2A96"/>
		<stop  offset="0.7439" style="stop-color:#9A2AAA"/>
		<stop  offset="0.8315" style="stop-color:#602ACA"/>
		<stop  offset="0.9379" style="stop-color:#102AF6"/>
		<stop  offset="0.9587" style="stop-color:#002AFF"/>
	</radialGradient>
	<path class="st2" d="M-351.8,58.7L-351.8,58.7c-125.9,0-228.9-103-228.9-228.9v0c0-125.9,103-228.9,228.9-228.9h0
		c125.9,0,228.9,103,228.9,228.9v0C-122.9-44.3-225.9,58.7-351.8,58.7z"/>
	<g>
		<radialGradient id="SVGID_3_" cx="-441.424" cy="-425.6366" r="431.6825" gradientUnits="userSpaceOnUse">
			<stop  offset="0" style="stop-color:#FFD676"/>
			<stop  offset="0.2463" style="stop-color:#F2A454"/>
			<stop  offset="0.3793" style="stop-color:#F05C3C"/>
			<stop  offset="0.6995" style="stop-color:#C22F86"/>
			<stop  offset="0.9568" style="stop-color:#6666AD"/>
			<stop  offset="0.9852" style="stop-color:#5C6CB2"/>
		</radialGradient>
		<path class="st3" d="M-137.7-518.2c0,51.7-41.7,93.6-93.2,93.6h-241.9c-51.5,0-93.2-41.9-93.2-93.6v-240.1
			c0-51.7,41.7-93.6,93.2-93.6h241.9c51.5,0,93.2,41.9,93.2,93.6V-518.2z"/>
	</g>
</g>
</svg>
