<?xml version="1.0" encoding="utf-8"?>
<!-- Generator: Adobe Illustrator 23.1.1, SVG Export Plug-In . SVG Version: 6.00 Build 0)  -->
<svg version="1.1" xmlns="http://www.w3.org/2000/svg" xmlns:xlink="http://www.w3.org/1999/xlink" x="0px" y="0px"
	 viewBox="0 0 505.9 505.9" style="enable-background:new 0 0 505.9 505.9;" xml:space="preserve">
<style type="text/css">
	.st0{fill:#0B0000;}
	.st1{fill:#FFFFFF;}
</style>
<g id="Icon">
	<g>
		<g>
			<g>
				
					<image style="overflow:visible;opacity:0.3;" width="2108" height="2108" xlink:href="E28EA25016D2E9A2.png"  transform="matrix(0.24 0 0 0.24 -3.762183e-02 -0.1369)">
				</image>
				<g>
					<path class="st0" d="M249.9,478.7L249.9,478.7C124,478.7,21,375.7,21,249.9v0C21,124,124,21,249.9,21h0
						c125.9,0,228.9,103,228.9,228.9v0C478.7,375.7,375.7,478.7,249.9,478.7z"/>
				</g>
			</g>
		</g>
		<g>
			<path class="st1" d="M335.7,163.5H164c-5.3,0-9.5,4.3-9.5,9.5v151l60-59.9c3.7-3.7,9.8-3.7,13.5,0c0,0,0,0,0,0l50.5,50.5
				l21.9-21.9c3.7-3.7,9.8-3.7,13.5,0c0,0,0,0,0,0l31.4,31.4V173C345.2,167.8,341,163.5,335.7,163.5z M292.8,234.5
				c-13.2,0-23.8-10.7-23.8-23.8c0-13.2,10.7-23.8,23.8-23.8s23.8,10.7,23.8,23.8C316.6,223.8,305.9,234.5,292.8,234.5z"/>
			<path class="st1" d="M249.9,38.2C133,38.2,38.2,133,38.2,249.9S133,461.5,249.9,461.5s211.6-94.7,211.6-211.6
				S366.7,38.2,249.9,38.2z M364.3,332.9c0,15.8-12.8,28.6-28.6,28.6H164c-15.8,0-28.6-12.8-28.6-28.6V173
				c0-15.8,12.8-28.6,28.6-28.6h171.6c15.8,0,28.6,12.8,28.6,28.6V332.9z"/>
		</g>
	</g>
</g>
<g id="Assets">
</g>
</svg>
