<?xml version="1.0" encoding="utf-8"?>
<!-- Generator: Adobe Illustrator 19.0.0, SVG Export Plug-In . SVG Version: 6.00 Build 0)  -->
<svg version="1.1" id="Layer_1" xmlns="http://www.w3.org/2000/svg" xmlns:xlink="http://www.w3.org/1999/xlink" x="0px" y="0px"
	 viewBox="0 0 30 30" style="enable-background:new 0 0 30 30;" xml:space="preserve">
<g>
	<g>
		<path d="M15,30c-0.1,0-0.2,0-0.3-0.1C14.1,29.4,0,18.4,0,8.4C0,3.8,3.8,0,8.4,0c2.9,0,5.2,1.8,6.6,3.6C16.4,1.8,18.8,0,21.6,0
			C26.2,0,30,3.8,30,8.4c0,10-14.1,21-14.7,21.5C15.2,30,15.1,30,15,30z M8.4,1C4.3,1,1,4.3,1,8.4c0,8.7,11.9,18.8,14,20.5
			c2.1-1.7,14-11.7,14-20.5C29,4.3,25.7,1,21.6,1c-2.8,0-5,1.9-6.2,3.8c-0.2,0.3-0.7,0.3-0.8,0C13.4,2.9,11.2,1,8.4,1z"/>
	</g>
</g>
</svg>
