<?xml version="1.0" encoding="iso-8859-1"?>
<!-- Generator: Adobe Illustrator 19.0.0, SVG Export Plug-In . SVG Version: 6.00 Build 0)  -->
<svg version="1.1" id="Layer_1" xmlns="http://www.w3.org/2000/svg" xmlns:xlink="http://www.w3.org/1999/xlink" x="0px" y="0px"
	 viewBox="0 0 24 24" style="enable-background:new 0 0 24 24;" xml:space="preserve">
<g>
	<path d="M12,0C5.383,0,0,5.159,0,11.5c0,3.268,1.455,6.374,4,8.56v3.44c0,0.182,0.099,0.349,0.258,0.437
		C4.333,23.979,4.417,24,4.5,24c0.092,0,0.184-0.025,0.265-0.076l2.787-1.741C8.968,22.725,10.463,23,12,23
		c6.617,0,12-5.159,12-11.5S18.617,0,12,0z M12,22c-1.494,0-2.944-0.282-4.311-0.838c-0.148-0.06-0.318-0.046-0.454,0.039L5,22.598
		v-2.771c0-0.15-0.067-0.291-0.182-0.386C2.392,17.44,1,14.546,1,11.5C1,5.71,5.935,1,12,1s11,4.71,11,10.5S18.065,22,12,22z"/>
	<circle cx="6" cy="12" r="1"/>
	<circle cx="12" cy="12" r="1"/>
	<circle cx="18" cy="12" r="1"/>
</g>
</svg>
