<?xml version="1.0" encoding="iso-8859-1"?>
<!-- Generator: Adobe Illustrator 19.2.1, SVG Export Plug-In . SVG Version: 6.00 Build 0)  -->
<svg version="1.1" id="Layer_1" xmlns="http://www.w3.org/2000/svg" xmlns:xlink="http://www.w3.org/1999/xlink" x="0px" y="0px"
	 viewBox="0 0 24 24" style="enable-background:new 0 0 24 24;" xml:space="preserve">
<g>
	<g>
		<path d="M23.769,11.064L13.196,0.491c-0.643-0.644-1.768-0.645-2.413,0L0.136,11.138c-0.143,0.143-0.186,0.358-0.108,0.545
			c0.077,0.187,0.26,0.309,0.462,0.309h1.5v11.5c0,0.276,0.224,0.5,0.5,0.5h6c0.276,0,0.5-0.224,0.5-0.5v-8.5h6v8.5
			c0,0.276,0.224,0.5,0.5,0.5h6c0.276,0,0.5-0.224,0.5-0.5V11.991h1.51c0.295-0.003,0.511-0.22,0.51-0.5
			C24.009,11.31,23.913,11.152,23.769,11.064z"/>
	</g>
</g>
</svg>
