<?xml version="1.0" encoding="iso-8859-1"?>
<!-- Generator: Adobe Illustrator 19.0.0, SVG Export Plug-In . SVG Version: 6.00 Build 0)  -->
<svg version="1.1" id="Layer_1" xmlns="http://www.w3.org/2000/svg" xmlns:xlink="http://www.w3.org/1999/xlink" x="0px" y="0px"
	 viewBox="0 0 24 24" style="enable-background:new 0 0 24 24;" xml:space="preserve">
<path d="M23.854,11.138L13.206,0.491c-0.643-0.644-1.767-0.645-2.413,0L0.146,11.138c-0.143,0.143-0.186,0.358-0.108,0.545
	c0.077,0.187,0.26,0.309,0.462,0.309H2v11.5c0,0.276,0.224,0.5,0.5,0.5h6c0.276,0,0.5-0.224,0.5-0.5v-8.5h6v8.5
	c0,0.276,0.224,0.5,0.5,0.5h6c0.276,0,0.5-0.224,0.499-0.5v-11.5h1.5c0.202,0,0.385-0.122,0.462-0.309
	C24.039,11.496,23.997,11.281,23.854,11.138z M21.5,10.992c-0.276,0-0.5,0.224-0.5,0.5v11.5h-4.999v-8.5c0-0.276-0.224-0.5-0.5-0.5
	h-7c-0.276,0-0.5,0.224-0.5,0.5v8.5h-5v-11.5c0-0.276-0.224-0.5-0.5-0.5H1.708l9.793-9.793c0.264-0.264,0.734-0.265,0.999,0
	l9.793,9.793C22.293,10.992,21.5,10.992,21.5,10.992z"/>
</svg>
