<?xml version="1.0" encoding="iso-8859-1"?>
<!-- Generator: Adobe Illustrator 19.0.0, SVG Export Plug-In . SVG Version: 6.00 Build 0)  -->
<svg version="1.1" id="Layer_1" xmlns="http://www.w3.org/2000/svg" xmlns:xlink="http://www.w3.org/1999/xlink" x="0px" y="0px"
	 viewBox="0 0 24 24" style="enable-background:new 0 0 24 24;" xml:space="preserve">
<g>
	<g>
		<path d="M9.5,21.5c-0.128,0-0.256-0.049-0.354-0.146l-9-9c-0.195-0.195-0.195-0.512,0-0.707l9-9c0.195-0.195,0.512-0.195,0.707,0
			s0.195,0.512,0,0.707L1.207,12l8.646,8.646c0.195,0.195,0.195,0.512,0,0.707C9.756,21.451,9.628,21.5,9.5,21.5z"/>
	</g>
	<g>
		<path d="M23.5,12.5h-23C0.224,12.5,0,12.276,0,12s0.224-0.5,0.5-0.5h23c0.276,0,0.5,0.224,0.5,0.5S23.776,12.5,23.5,12.5z"/>
	</g>
</g>
<g>
</g>
<g>
</g>
<g>
</g>
<g>
</g>
<g>
</g>
<g>
</g>
<g>
</g>
<g>
</g>
<g>
</g>
<g>
</g>
<g>
</g>
<g>
</g>
<g>
</g>
<g>
</g>
<g>
</g>
</svg>
