<?xml version="1.0" encoding="iso-8859-1"?>
<!-- Generator: Adobe Illustrator 19.0.0, SVG Export Plug-In . SVG Version: 6.00 Build 0)  -->
<svg version="1.1" id="Layer_1" xmlns="http://www.w3.org/2000/svg" xmlns:xlink="http://www.w3.org/1999/xlink" x="0px" y="0px"
	 viewBox="0 0 24 24" style="enable-background:new 0 0 24 24;" xml:space="preserve">
<g>
	<g>
		<path d="M8.32,24h7.36l4.225-6.64l-0.775-0.465c-0.115-0.069-0.254-0.088-0.385-0.055c-0.131,0.035-0.242,0.121-0.309,0.239
			c-0.112,0.201-0.238,0.413-0.4,0.605C17.534,18.284,16.599,19,15,19c-1.194,0-2.061-0.282-2.572-0.839
			C12.333,18.059,12.199,18,12.06,18H11.94c-0.14,0-0.273,0.059-0.368,0.161C11.061,18.718,10.194,19,9,19
			c-1.599,0-2.534-0.716-3.037-1.317c-0.161-0.191-0.287-0.403-0.399-0.604c-0.066-0.118-0.178-0.204-0.309-0.239
			c-0.129-0.034-0.269-0.015-0.385,0.055L4.095,17.36L8.32,24z"/>
		<path d="M2.849,17.266l-0.698,0.349c-0.694,0.347-1.181,0.983-1.333,1.746L0.01,23.402c-0.029,0.147,0.009,0.299,0.104,0.415
			S0.351,24,0.5,24h6.635L2.849,17.266z"/>
		<path d="M23.182,19.361c-0.152-0.762-0.639-1.398-1.333-1.746l-0.698-0.349L16.865,24H23.5c0.149,0,0.292-0.067,0.387-0.183
			s0.133-0.268,0.104-0.415L23.182,19.361z"/>
	</g>
	<g>
		<path d="M7,11.707l-1.751,1.751c0.031,0.02,0.063,0.043,0.094,0.062l2.314-1.157L7,11.707z"/>
		<path d="M4.768,9.475C4.416,9.853,4,10.506,4,11.5c0,0.529,0.205,0.957,0.49,1.303L6.293,11L4.768,9.475z"/>
		<path d="M5,7.329V7.5c0.128,0,0.256,0.049,0.354,0.146C5.501,7.794,5.665,7.975,5.842,8.17C6.54,8.942,7.496,10,8.5,10
			c0.563,0,0.989-0.413,1.482-0.892C10.518,8.589,11.125,8,12,8s1.482,0.589,2.018,1.108C14.511,9.587,14.937,10,15.5,10
			c1.004,0,1.96-1.058,2.658-1.83c0.177-0.196,0.341-0.376,0.488-0.524C18.744,7.549,18.872,7.5,19,7.5V7.329
			C19,6.85,18.862,6.395,18.612,6H5.388C5.138,6.395,5,6.85,5,7.329z M13.014,7.385C13.066,7.16,13.269,7,13.5,7h3
			C16.776,7,17,7.224,17,7.5S16.776,8,16.5,8H16v0.5c0,0.173-0.09,0.334-0.237,0.425C15.683,8.975,15.592,9,15.5,9
			c-0.076,0-0.153-0.018-0.224-0.053l-2-1C13.069,7.844,12.96,7.611,13.014,7.385z M7.5,7h3c0.231,0,0.434,0.16,0.486,0.385
			c0.054,0.226-0.056,0.458-0.263,0.562l-2,1C8.653,8.982,8.576,9,8.5,9C8.408,9,8.317,8.975,8.237,8.925C8.09,8.834,8,8.673,8,8.5
			V8H7.5C7.224,8,7,7.776,7,7.5S7.224,7,7.5,7z"/>
		<path d="M15.5,11c-0.969,0-1.611-0.624-2.179-1.174C12.864,9.383,12.47,9,12,9s-0.864,0.383-1.321,0.826
			C10.111,10.376,9.469,11,8.5,11c-0.349,0-0.679-0.075-0.991-0.198l1.17,1.17c0.466-0.069,0.958-0.374,1.437-0.686
			C10.711,10.9,11.326,10.5,12,10.5s1.289,0.4,1.884,0.786c0.479,0.311,0.971,0.617,1.437,0.686l1.17-1.17
			C16.179,10.925,15.849,11,15.5,11z"/>
		<path d="M15.339,12.979c-0.746-0.057-1.411-0.471-2-0.854C12.845,11.804,12.377,11.5,12,11.5s-0.845,0.304-1.339,0.625
			c-0.589,0.382-1.253,0.797-2,0.854l-2.725,1.362c-0.006,0.784,0.121,1.899,0.793,2.7C7.263,17.677,8.026,18,9,18
			c1.074,0,1.724-0.237,1.985-0.725c0.048-0.091,0.079-0.183,0.096-0.275h1.838c0.017,0.092,0.048,0.184,0.096,0.275
			C13.276,17.763,13.926,18,15,18c0.974,0,1.737-0.323,2.271-0.959c0.672-0.801,0.799-1.916,0.793-2.7L15.339,12.979z M15,16
			c-0.062,0-0.123-0.014-0.182-0.037c-0.333-0.064-0.614-0.275-0.741-0.581L12,13.651l-2.077,1.731
			c-0.127,0.306-0.408,0.517-0.741,0.581C9.123,15.986,9.062,16,9,16c-0.552,0-1-0.449-1-1s0.448-1,1-1
			c0.266,0,0.505,0.108,0.685,0.278l1.995-1.663c0.015-0.012,0.033-0.016,0.049-0.027c0.028-0.018,0.055-0.034,0.086-0.046
			c0.031-0.013,0.061-0.021,0.094-0.027c0.03-0.006,0.058-0.009,0.088-0.009c0.035,0,0.067,0.004,0.101,0.01
			c0.029,0.006,0.056,0.013,0.084,0.024c0.032,0.013,0.061,0.029,0.09,0.049c0.016,0.01,0.034,0.014,0.048,0.026l1.995,1.663
			C14.495,14.108,14.734,14,15,14c0.552,0,1,0.449,1,1S15.552,16,15,16z"/>
		<path d="M18,5V4.5C18,2.019,15.981,0,13.5,0h-3C8.019,0,6,2.019,6,4.5V5H18z"/>
		<path d="M17.707,11l1.803,1.803C19.795,12.457,20,12.029,20,11.5c0-0.994-0.416-1.647-0.768-2.025L17.707,11z"/>
		<path d="M16.344,12.363l2.314,1.157c0.031-0.019,0.062-0.042,0.094-0.062L17,11.707L16.344,12.363z"/>
	</g>
</g>
<g>
</g>
<g>
</g>
<g>
</g>
<g>
</g>
<g>
</g>
<g>
</g>
<g>
</g>
<g>
</g>
<g>
</g>
<g>
</g>
<g>
</g>
<g>
</g>
<g>
</g>
<g>
</g>
<g>
</g>
</svg>
