<?xml version="1.0" encoding="iso-8859-1"?>
<!-- Generator: Adobe Illustrator 19.0.0, SVG Export Plug-In . SVG Version: 6.00 Build 0)  -->
<svg version="1.1" id="Layer_1" xmlns="http://www.w3.org/2000/svg" xmlns:xlink="http://www.w3.org/1999/xlink" x="0px" y="0px"
	 viewBox="0 0 24 24" style="enable-background:new 0 0 24 24;" xml:space="preserve">
<g>
	<g>
		<path d="M9,18c-0.974,0-1.737-0.323-2.271-0.959c-0.835-0.996-0.833-2.486-0.772-3.208C5.281,13.548,4,12.833,4,11.5
			c0-1.227,0.636-1.941,1-2.25V7.329c0-0.668,0.26-1.296,0.732-1.768L6,5.293V4.5C6,2.019,8.019,0,10.5,0H12
			c0.276,0,0.5,0.224,0.5,0.5S12.276,1,12,1h-1.5C8.57,1,7,2.57,7,4.5v1c0,0.133-0.053,0.26-0.146,0.354L6.439,6.268
			C6.156,6.551,6,6.928,6,7.329V9.5c0,0.178-0.095,0.342-0.248,0.432C5.726,9.948,5,10.406,5,11.5c0,1.005,1.625,1.516,1.641,1.521
			c0.244,0.072,0.396,0.316,0.352,0.566c-0.003,0.018-0.31,1.847,0.505,2.814C7.836,16.804,8.328,17,9,17
			c0.928,0,1.104-0.199,1.105-0.201c-0.103-0.153-0.123-0.362-0.035-0.524C10.157,16.112,10.315,16,10.5,16H12
			c0.276,0,0.5,0.224,0.5,0.5S12.276,17,12,17h-0.919c-0.017,0.092-0.048,0.184-0.096,0.275C10.724,17.763,10.074,18,9,18z"/>
	</g>
	<g>
		<path d="M6.5,14c-0.183,0-0.359-0.101-0.447-0.276c-0.123-0.247-0.023-0.547,0.224-0.671l1.38-0.69l-2.51-2.509
			c-0.195-0.195-0.195-0.512,0-0.707s0.512-0.195,0.707,0l3,3c0.113,0.114,0.166,0.275,0.14,0.434
			c-0.025,0.159-0.126,0.295-0.27,0.367l-2,1C6.651,13.983,6.575,14,6.5,14z"/>
	</g>
	<g>
		<path d="M9,16c-0.143,0-0.285-0.061-0.384-0.18c-0.177-0.212-0.148-0.528,0.063-0.705l3-2.5c0.212-0.176,0.526-0.15,0.704,0.064
			c0.177,0.212,0.148,0.528-0.063,0.705l-3,2.5C9.227,15.962,9.113,16,9,16z"/>
	</g>
	<g>
		<path d="M12,6H6.5C6.224,6,6,5.776,6,5.5S6.224,5,6.5,5H12c0.276,0,0.5,0.224,0.5,0.5S12.276,6,12,6z"/>
	</g>
	<g>
		<path d="M8.5,11c-1.433,0-2.256-0.928-2.918-1.674c-0.147-0.166-0.29-0.327-0.436-0.473c-0.195-0.195-0.195-0.512,0-0.707
			s0.512-0.195,0.707,0C6.013,8.305,6.169,8.481,6.33,8.662C6.94,9.35,7.517,10,8.5,10c0.563,0,0.989-0.413,1.482-0.892
			C10.518,8.589,11.125,8,12,8c0.276,0,0.5,0.224,0.5,0.5S12.276,9,12,9c-0.47,0-0.864,0.383-1.321,0.826
			C10.111,10.376,9.469,11,8.5,11z"/>
	</g>
	<g>
		<path d="M8.5,9C8.408,9,8.317,8.975,8.237,8.925C8.09,8.834,8,8.673,8,8.5V8H7.5C7.224,8,7,7.776,7,7.5S7.224,7,7.5,7h3
			c0.231,0,0.434,0.16,0.486,0.385c0.054,0.226-0.056,0.458-0.263,0.562l-2,1C8.653,8.982,8.576,9,8.5,9z"/>
	</g>
	<g>
		<path d="M8.5,13C8.224,13,8,12.776,8,12.5S8.224,12,8.5,12c0.518,0,1.076-0.363,1.616-0.714C10.711,10.9,11.326,10.5,12,10.5
			c0.276,0,0.5,0.224,0.5,0.5s-0.224,0.5-0.5,0.5c-0.377,0-0.845,0.304-1.339,0.625C10.029,12.535,9.314,13,8.5,13z"/>
	</g>
	<g>
		<circle cx="9" cy="15" r="1"/>
	</g>
	<g>
		<path d="M15,18c-1.074,0-1.724-0.237-1.985-0.725c-0.048-0.091-0.079-0.183-0.096-0.275H12c-0.276,0-0.5-0.224-0.5-0.5
			S11.724,16,12,16h1.5c0.185,0,0.354,0.102,0.44,0.264c0.088,0.163,0.078,0.36-0.024,0.513C13.896,16.801,14.072,17,15,17
			c0.673,0,1.165-0.197,1.505-0.602c0.678-0.808,0.593-2.303,0.503-2.812c-0.045-0.25,0.107-0.494,0.352-0.566
			C17.375,13.016,19,12.505,19,11.5c0-1.094-0.726-1.552-0.757-1.571C18.096,9.838,18,9.674,18,9.5V7.329
			c0-0.401-0.156-0.777-0.439-1.061l-0.414-0.414C17.053,5.76,17,5.633,17,5.5v-1C17,2.57,15.43,1,13.5,1H12
			c-0.276,0-0.5-0.224-0.5-0.5S11.724,0,12,0h1.5C15.981,0,18,2.019,18,4.5v0.793l0.268,0.268C18.74,6.033,19,6.661,19,7.329V9.25
			c0.364,0.309,1,1.023,1,2.25c0,1.333-1.281,2.048-1.957,2.333c0.061,0.722,0.063,2.213-0.772,3.208C16.737,17.677,15.974,18,15,18
			z"/>
	</g>
	<g>
		<path d="M17.5,14c-0.075,0-0.151-0.017-0.224-0.053l-2-1c-0.144-0.072-0.244-0.208-0.27-0.367c-0.026-0.159,0.026-0.32,0.14-0.434
			l3-3c0.195-0.195,0.512-0.195,0.707,0s0.195,0.512,0,0.707l-2.51,2.509l1.38,0.69c0.247,0.124,0.347,0.424,0.224,0.671
			C17.859,13.899,17.683,14,17.5,14z"/>
	</g>
	<g>
		<path d="M15,16c-0.113,0-0.227-0.038-0.32-0.116l-3-2.5c-0.212-0.177-0.24-0.492-0.063-0.705c0.177-0.213,0.493-0.239,0.704-0.064
			l3,2.5c0.212,0.177,0.24,0.492,0.063,0.705C15.285,15.939,15.143,16,15,16z"/>
	</g>
	<g>
		<path d="M17.5,6H12c-0.276,0-0.5-0.224-0.5-0.5S11.724,5,12,5h5.5C17.776,5,18,5.224,18,5.5S17.776,6,17.5,6z"/>
	</g>
	<g>
		<path d="M15.5,11c-0.969,0-1.611-0.624-2.179-1.174C12.864,9.383,12.47,9,12,9c-0.276,0-0.5-0.224-0.5-0.5S11.724,8,12,8
			c0.875,0,1.482,0.589,2.018,1.108C14.511,9.587,14.937,10,15.5,10c0.983,0,1.56-0.65,2.17-1.338
			c0.161-0.181,0.317-0.357,0.477-0.516c0.195-0.195,0.512-0.195,0.707,0s0.195,0.512,0,0.707c-0.146,0.146-0.288,0.307-0.436,0.473
			C17.756,10.072,16.933,11,15.5,11z"/>
	</g>
	<g>
		<path d="M15.5,9c-0.076,0-0.153-0.018-0.224-0.053l-2-1c-0.207-0.104-0.316-0.336-0.263-0.562C13.066,7.16,13.269,7,13.5,7h3
			C16.776,7,17,7.224,17,7.5S16.776,8,16.5,8H16v0.5c0,0.173-0.09,0.334-0.237,0.425C15.683,8.975,15.592,9,15.5,9z"/>
	</g>
	<g>
		<path d="M15.5,13c-0.814,0-1.529-0.465-2.161-0.875C12.845,11.804,12.377,11.5,12,11.5c-0.276,0-0.5-0.224-0.5-0.5
			s0.224-0.5,0.5-0.5c0.674,0,1.289,0.4,1.884,0.786C14.424,11.637,14.982,12,15.5,12c0.276,0,0.5,0.224,0.5,0.5S15.776,13,15.5,13z
			"/>
	</g>
	<g>
		<path d="M15,16c-0.552,0-1-0.449-1-1s0.448-1,1-1s1,0.449,1,1S15.552,16,15,16z M15,15h-0.5H15C15,15,15,15,15,15z"/>
	</g>
	<g>
		<path d="M5.5,13c-0.128,0-0.256-0.049-0.354-0.146c-0.195-0.195-0.195-0.512,0-0.707l1.5-1.5c0.195-0.195,0.512-0.195,0.707,0
			s0.195,0.512,0,0.707l-1.5,1.5C5.756,12.951,5.628,13,5.5,13z"/>
	</g>
	<g>
		<path d="M18.5,13c-0.128,0-0.256-0.049-0.354-0.146l-1.5-1.5c-0.195-0.195-0.195-0.512,0-0.707s0.512-0.195,0.707,0l1.5,1.5
			c0.195,0.195,0.195,0.512,0,0.707C18.756,12.951,18.628,13,18.5,13z"/>
	</g>
	<g>
		<path d="M23.5,24h-23c-0.149,0-0.292-0.067-0.387-0.183s-0.133-0.268-0.104-0.415l0.809-4.041
			c0.152-0.762,0.639-1.398,1.333-1.746l1.125-0.563c0.192-0.096,0.426-0.058,0.577,0.094l0.224,0.224l2.166-1.299
			c0.235-0.141,0.543-0.066,0.686,0.171c0.143,0.237,0.065,0.544-0.172,0.686l-2.5,1.5c-0.193,0.117-0.447,0.087-0.61-0.075
			l-0.245-0.245L2.599,18.51c-0.41,0.205-0.71,0.597-0.8,1.047L1.11,23H22.89l-0.688-3.443c-0.09-0.451-0.39-0.842-0.8-1.047
			l-0.803-0.401l-0.245,0.245c-0.163,0.163-0.417,0.192-0.61,0.075l-2.5-1.5c-0.237-0.142-0.314-0.449-0.172-0.686
			c0.143-0.237,0.452-0.312,0.686-0.171l2.166,1.299l0.224-0.224c0.152-0.152,0.384-0.19,0.577-0.094l1.125,0.563
			c0.694,0.347,1.181,0.983,1.333,1.746l0.809,4.041c0.029,0.147-0.009,0.299-0.104,0.415S23.649,24,23.5,24z"/>
	</g>
	<g>
		<path d="M7.5,24c-0.165,0-0.326-0.082-0.422-0.231l-3.5-5.5c-0.148-0.233-0.079-0.542,0.153-0.69
			c0.231-0.146,0.541-0.08,0.69,0.153l3.5,5.5c0.148,0.233,0.079,0.542-0.153,0.69C7.686,23.975,7.593,24,7.5,24z"/>
	</g>
	<g>
		<path d="M16.5,24c-0.093,0-0.186-0.025-0.269-0.078c-0.232-0.148-0.302-0.458-0.153-0.69l3.5-5.5
			c0.15-0.233,0.461-0.299,0.69-0.153c0.232,0.148,0.302,0.458,0.153,0.69l-3.5,5.5C16.826,23.918,16.665,24,16.5,24z"/>
	</g>
</g>
<g>
</g>
<g>
</g>
<g>
</g>
<g>
</g>
<g>
</g>
<g>
</g>
<g>
</g>
<g>
</g>
<g>
</g>
<g>
</g>
<g>
</g>
<g>
</g>
<g>
</g>
<g>
</g>
<g>
</g>
</svg>
