<?xml version="1.0" encoding="iso-8859-1"?>
<!-- Generator: Adobe Illustrator 19.0.0, SVG Export Plug-In . SVG Version: 6.00 Build 0)  -->
<svg version="1.1" id="Layer_1" xmlns="http://www.w3.org/2000/svg" xmlns:xlink="http://www.w3.org/1999/xlink" x="0px" y="0px"
	 viewBox="0 0 24 24" style="enable-background:new 0 0 24 24;" xml:space="preserve">
<g>
	<g>
		<path d="M12,17c-2.463,0-4.65-1.99-5.559-5.001C5.615,11.951,5,10.893,5,9.5c0-0.448,0.067-0.886,0.193-1.267
			c0.086-0.261,0.37-0.405,0.632-0.317c0.263,0.087,0.404,0.37,0.317,0.632C6.049,8.829,6,9.158,6,9.5C6,10.468,6.376,11,6.5,11
			c0.137-0.085,0.32-0.11,0.468-0.051c0.148,0.061,0.275,0.176,0.313,0.332C7.98,14.104,9.877,16,12,16s4.02-1.896,4.719-4.719
			c0.038-0.156,0.149-0.283,0.298-0.343c0.149-0.06,0.317-0.045,0.452,0.04C17.645,11.015,18,10.471,18,9.5
			c0-0.342-0.049-0.671-0.143-0.951c-0.087-0.262,0.055-0.545,0.317-0.632c0.26-0.088,0.546,0.056,0.632,0.317
			C18.933,8.614,19,9.052,19,9.5c0,1.393-0.615,2.451-1.441,2.499C16.65,15.01,14.463,17,12,17z"/>
	</g>
	<g>
		<path d="M19.635,16.626l-2.572-0.895c-0.189-0.064-0.398-0.013-0.533,0.134C15.27,17.242,13.661,18,12,18s-3.27-0.758-4.529-2.134
			c-0.135-0.147-0.344-0.199-0.533-0.134l-2.572,0.895C1.754,17.534,0,20.001,0,22.766V23.5C0,23.776,0.224,24,0.5,24h23
			c0.276,0,0.5-0.224,0.5-0.5v-0.734C24,20.001,22.246,17.534,19.635,16.626z"/>
		<path d="M5.433,8.833c0.13,0.069,0.285,0.077,0.419,0.023C5.998,8.798,8.991,7.582,9.8,4.881c1.561,1.709,5.151,4.01,8.532,4.01
			c0.235,0,0.438-0.164,0.488-0.393C18.943,7.939,19,7.463,19,7c0-3.86-3.141-7-7-7S5,3.14,5,7c0,0.463,0.057,0.939,0.18,1.498
			C5.211,8.641,5.304,8.764,5.433,8.833z"/>
	</g>
	<g>
		<g>
			<path d="M10,11c-1.121,0-2-0.659-2-1.5S8.879,8,10,8s2,0.659,2,1.5S11.121,11,10,11z M10,9C9.398,9,9,9.301,9,9.5S9.398,10,10,10
				s1-0.301,1-0.5S10.602,9,10,9z"/>
		</g>
		<g>
			<path d="M14,11c-1.121,0-2-0.659-2-1.5S12.879,8,14,8s2,0.659,2,1.5S15.121,11,14,11z M14,9c-0.602,0-1,0.301-1,0.5
				s0.398,0.5,1,0.5s1-0.301,1-0.5S14.602,9,14,9z"/>
		</g>
		<g>
			<path d="M12.5,10c-0.128,0-0.256-0.049-0.354-0.146L12,9.707l-0.146,0.146c-0.195,0.195-0.512,0.195-0.707,0
				s-0.195-0.512,0-0.707l0.5-0.5c0.195-0.195,0.512-0.195,0.707,0l0.5,0.5c0.195,0.195,0.195,0.512,0,0.707
				C12.756,9.951,12.628,10,12.5,10z"/>
		</g>
		<g>
			<path d="M15.5,10c-0.183,0-0.359-0.101-0.447-0.276c-0.123-0.247-0.023-0.547,0.224-0.671l3-1.5
				c0.248-0.123,0.547-0.024,0.671,0.224c0.123,0.247,0.023,0.547-0.224,0.671l-3,1.5C15.651,9.983,15.575,10,15.5,10z"/>
		</g>
		<g>
			<path d="M8.5,10c-0.053,0-0.105-0.008-0.158-0.026l-3-1C5.08,8.887,4.938,8.604,5.025,8.342C5.114,8.08,5.398,7.938,5.658,8.026
				l3,1c0.262,0.087,0.403,0.37,0.316,0.632C8.904,9.868,8.709,10,8.5,10z"/>
		</g>
	</g>
	<g>
		<path d="M6,10.833V7c0-0.276-0.224-0.5-0.5-0.5S5,6.724,5,7c0,1.615-0.897,5.19-1.854,6.146c-0.195,0.195-0.195,0.512,0,0.707
			c1.105,1.106,4.868,1.591,5.293,1.643C8.46,15.499,8.48,15.5,8.5,15.5c0.177,0,0.343-0.094,0.433-0.25
			c0.101-0.173,0.088-0.39-0.032-0.55L6,10.833z"/>
		<path d="M20.854,13.146C19.897,12.19,19,8.615,19,7c0-0.276-0.224-0.5-0.5-0.5S18,6.724,18,7v3.833L15.1,14.7
			c-0.12,0.16-0.133,0.376-0.032,0.55c0.09,0.156,0.256,0.25,0.433,0.25c0.02,0,0.04-0.001,0.061-0.003
			c0.425-0.052,4.188-0.537,5.293-1.643C21.049,13.658,21.049,13.342,20.854,13.146z"/>
	</g>
</g>
<g>
</g>
<g>
</g>
<g>
</g>
<g>
</g>
<g>
</g>
<g>
</g>
<g>
</g>
<g>
</g>
<g>
</g>
<g>
</g>
<g>
</g>
<g>
</g>
<g>
</g>
<g>
</g>
<g>
</g>
</svg>
