<?xml version="1.0" encoding="iso-8859-1"?>
<!-- Generator: Adobe Illustrator 19.0.0, SVG Export Plug-In . SVG Version: 6.00 Build 0)  -->
<svg version="1.1" id="Layer_1" xmlns="http://www.w3.org/2000/svg" xmlns:xlink="http://www.w3.org/1999/xlink" x="0px" y="0px"
	 viewBox="0 0 24 24" style="enable-background:new 0 0 24 24;" xml:space="preserve">
<g>
	<path d="M17.5,12c-1.93,0-3.5,1.57-3.5,3.5s1.57,3.5,3.5,3.5s3.5-1.57,3.5-3.5S19.43,12,17.5,12z"/>
	<path d="M6.5,12C4.57,12,3,13.57,3,15.5S4.57,19,6.5,19s3.5-1.57,3.5-3.5S8.43,12,6.5,12z"/>
	<path d="M22.911,11.902l-2.913-7.501C19.946,3.068,18.846,2,17.5,2c-1.306,0-2.381,1.006-2.491,2.284l-1.46,1.46
		C13.177,5.283,12.611,5,12,5s-1.177,0.283-1.549,0.744l-1.46-1.46C8.881,3.006,7.806,2,6.5,2C5.154,2,4.054,3.068,4.002,4.401
		l-2.913,7.501C0.376,12.971,0,14.214,0,15.5C0,19.084,2.916,22,6.5,22c1.614,0,3.144-0.59,4.34-1.667
		c0.799,0.225,1.521,0.225,2.32,0C14.356,21.41,15.886,22,17.5,22c3.584,0,6.5-2.916,6.5-6.5C24,14.214,23.624,12.971,22.911,11.902
		z M8.342,7.026C8.606,6.938,8.887,7.08,8.974,7.342l1,3c0.087,0.262-0.054,0.545-0.316,0.632C9.605,10.992,9.552,11,9.5,11
		c-0.209,0-0.404-0.132-0.474-0.342l-1-3C7.938,7.396,8.08,7.113,8.342,7.026z M6.5,20C4.019,20,2,17.981,2,15.5S4.019,11,6.5,11
		s4.5,2.019,4.5,4.5S8.981,20,6.5,20z M14.026,10.342l1-3c0.087-0.262,0.368-0.404,0.632-0.316c0.262,0.087,0.403,0.37,0.316,0.632
		l-1,3C14.904,10.868,14.709,11,14.5,11c-0.052,0-0.105-0.008-0.158-0.026C14.08,10.887,13.938,10.604,14.026,10.342z M17.5,20
		c-2.481,0-4.5-2.019-4.5-4.5s2.019-4.5,4.5-4.5s4.5,2.019,4.5,4.5S19.981,20,17.5,20z"/>
</g>
<g>
</g>
<g>
</g>
<g>
</g>
<g>
</g>
<g>
</g>
<g>
</g>
<g>
</g>
<g>
</g>
<g>
</g>
<g>
</g>
<g>
</g>
<g>
</g>
<g>
</g>
<g>
</g>
<g>
</g>
</svg>
