<?xml version="1.0" encoding="iso-8859-1"?>
<!-- Generator: Adobe Illustrator 18.0.0, SVG Export Plug-In . SVG Version: 6.00 Build 0)  -->
<!DOCTYPE svg PUBLIC "-//W3C//DTD SVG 1.1//EN" "http://www.w3.org/Graphics/SVG/1.1/DTD/svg11.dtd">
<svg version="1.1" id="Layer_1" xmlns="http://www.w3.org/2000/svg" xmlns:xlink="http://www.w3.org/1999/xlink" x="0px" y="0px"
	 viewBox="0 0 24 24" style="enable-background:new 0 0 24 24;" xml:space="preserve">
<g>
	<path d="M6.5,20C4.019,20,2,17.981,2,15.5S4.019,11,6.5,11s4.5,2.019,4.5,4.5S8.981,20,6.5,20z M6.5,12C4.57,12,3,13.57,3,15.5
		S4.57,19,6.5,19s3.5-1.57,3.5-3.5S8.43,12,6.5,12z"/>
	<path d="M17.5,20c-2.481,0-4.5-2.019-4.5-4.5s2.019-4.5,4.5-4.5s4.5,2.019,4.5,4.5S19.981,20,17.5,20z M17.5,12
		c-1.93,0-3.5,1.57-3.5,3.5s1.57,3.5,3.5,3.5s3.5-1.57,3.5-3.5S19.43,12,17.5,12z"/>
	<path d="M17.5,22c-1.614,0-3.144-0.59-4.34-1.667c-0.799,0.225-1.521,0.225-2.32,0C9.644,21.41,8.114,22,6.5,22
		C2.916,22,0,19.084,0,15.5c0-1.285,0.376-2.528,1.089-3.598l2.913-7.501C4.054,3.068,5.154,2,6.5,2c1.306,0,2.381,1.006,2.49,2.283
		l1.461,1.461C10.823,5.283,11.39,5,12,5s1.177,0.283,1.549,0.744l1.461-1.461C15.119,3.006,16.194,2,17.5,2
		c1.346,0,2.446,1.068,2.498,2.401l2.913,7.501C23.624,12.972,24,14.215,24,15.5C24,19.084,21.084,22,17.5,22z M13.29,19.269
		c0.129,0,0.256,0.05,0.352,0.145C14.679,20.437,16.049,21,17.5,21c3.032,0,5.5-2.468,5.5-5.5c0-1.104-0.328-2.17-0.949-3.084
		c-0.021-0.031-0.038-0.065-0.052-0.101l-2.965-7.635C19.012,4.623,19,4.562,19,4.5C19,3.673,18.327,3,17.5,3S16,3.673,16,4.5
		c0,0.133-0.053,0.26-0.146,0.354l-2,2c-0.244,0.242-0.803,0.139-0.916-0.186C12.795,6.269,12.418,6,12,6s-0.795,0.269-0.938,0.668
		C10.992,6.867,10.804,7,10.592,7c-0.133,0-0.352-0.053-0.445-0.146l-2-2C8.053,4.76,8,4.633,8,4.5C8,3.673,7.327,3,6.5,3
		S5,3.673,5,4.5c0,0.062-0.012,0.123-0.034,0.181l-2.965,7.635c-0.014,0.035-0.031,0.069-0.052,0.101C1.328,13.33,1,14.396,1,15.5
		C1,18.532,3.468,21,6.5,21c1.451,0,2.821-0.563,3.858-1.587c0.137-0.135,0.338-0.179,0.514-0.117c0.803,0.275,1.453,0.275,2.256,0
		C13.181,19.277,13.235,19.269,13.29,19.269z"/>
	<path d="M9.5,11c-0.209,0-0.404-0.133-0.475-0.342l-1-3C7.938,7.396,8.08,7.113,8.342,7.025C8.604,6.938,8.887,7.08,8.975,7.342
		l1,3c0.087,0.262-0.055,0.545-0.316,0.633C9.605,10.992,9.553,11,9.5,11z"/>
	<path d="M14.5,11c-0.053,0-0.105-0.008-0.158-0.025c-0.262-0.088-0.403-0.371-0.316-0.633l1-3c0.088-0.261,0.371-0.403,0.633-0.316
		c0.262,0.088,0.403,0.371,0.316,0.633l-1,3C14.904,10.867,14.709,11,14.5,11z"/>
</g>
<g>
</g>
<g>
</g>
<g>
</g>
<g>
</g>
<g>
</g>
<g>
</g>
<g>
</g>
<g>
</g>
<g>
</g>
<g>
</g>
<g>
</g>
<g>
</g>
<g>
</g>
<g>
</g>
<g>
</g>
</svg>
