<?xml version="1.0" encoding="iso-8859-1"?>
<!-- Generator: Adobe Illustrator 19.0.0, SVG Export Plug-In . SVG Version: 6.00 Build 0)  -->
<svg version="1.1" id="Layer_1" xmlns="http://www.w3.org/2000/svg" xmlns:xlink="http://www.w3.org/1999/xlink" x="0px" y="0px"
	 viewBox="0 0 24 24" style="enable-background:new 0 0 24 24;" xml:space="preserve">
<g>
	<g>
		<path d="M14.301,24h-4.6c-0.539,0-0.995-0.396-1.06-0.921l-0.396-2.76c-0.541-0.244-1.065-0.548-1.563-0.907l-2.603,1.045
			c-0.516,0.187-1.078-0.021-1.327-0.477l-2.294-3.969c-0.261-0.479-0.149-1.054,0.26-1.378l2.208-1.727
			C2.893,12.568,2.876,12.275,2.876,12c0-0.275,0.017-0.568,0.052-0.906L0.722,9.37c-0.42-0.332-0.531-0.926-0.26-1.384l2.297-3.975
			c0.25-0.458,0.818-0.664,1.317-0.469l2.61,1.048c0.521-0.372,1.036-0.671,1.56-0.908l0.397-2.771C8.707,0.396,9.163,0,9.702,0h4.6
			c0.539,0,0.995,0.396,1.06,0.921l0.396,2.761c0.541,0.243,1.064,0.547,1.562,0.907l2.603-1.045
			c0.513-0.189,1.076,0.02,1.327,0.477l2.294,3.969c0.262,0.479,0.149,1.054-0.261,1.378l-2.208,1.726
			c0.028,0.266,0.052,0.577,0.052,0.906c0,0.329-0.023,0.64-0.052,0.906l2.206,1.725c0.412,0.327,0.524,0.902,0.269,1.37
			l-2.306,3.989c-0.25,0.458-0.82,0.662-1.317,0.469l-2.61-1.048c-0.521,0.372-1.036,0.671-1.56,0.908l-0.397,2.77
			C15.296,23.604,14.84,24,14.301,24z M6.757,18.343c0.108,0,0.216,0.035,0.305,0.104c0.575,0.442,1.19,0.799,1.829,1.061
			c0.164,0.067,0.28,0.216,0.306,0.392l0.437,3.047L14.301,23l0.505-3.101c0.025-0.176,0.142-0.325,0.306-0.392
			c0.614-0.251,1.213-0.6,1.833-1.064c0.14-0.104,0.324-0.129,0.486-0.064l2.863,1.15l2.382-4.018
			c0.016-0.028,0.011-0.073-0.015-0.094l-2.424-1.896c-0.138-0.108-0.21-0.282-0.188-0.456c0.038-0.304,0.077-0.668,0.077-1.065
			c0-0.396-0.039-0.761-0.077-1.065c-0.022-0.175,0.05-0.348,0.188-0.456l2.427-1.897c0.024-0.019,0.028-0.063,0.007-0.102
			l-2.294-3.969l-2.945,1.111c-0.165,0.067-0.35,0.041-0.491-0.067c-0.576-0.443-1.191-0.8-1.829-1.061
			c-0.164-0.067-0.28-0.216-0.306-0.392L14.37,1.054L9.702,1L9.196,4.102C9.171,4.277,9.055,4.426,8.891,4.494
			C8.277,4.745,7.677,5.093,7.058,5.558c-0.141,0.105-0.324,0.13-0.487,0.064l-2.863-1.15L1.326,8.49l2.439,1.989
			c0.138,0.108,0.21,0.281,0.188,0.456C3.901,11.355,3.876,11.693,3.876,12c0,0.307,0.024,0.646,0.077,1.065
			c0.022,0.174-0.05,0.348-0.188,0.456l-2.427,1.897c-0.024,0.019-0.028,0.064-0.007,0.103l2.294,3.969l2.945-1.111
			C6.631,18.354,6.694,18.343,6.757,18.343z M12.001,17c-2.757,0-5-2.243-5-5s2.243-5,5-5s5,2.243,5,5S14.758,17,12.001,17z
			 M12.001,8c-2.206,0-4,1.794-4,4s1.794,4,4,4s4-1.794,4-4S14.207,8,12.001,8z"/>
	</g>
</g>
<g>
</g>
<g>
</g>
<g>
</g>
<g>
</g>
<g>
</g>
<g>
</g>
<g>
</g>
<g>
</g>
<g>
</g>
<g>
</g>
<g>
</g>
<g>
</g>
<g>
</g>
<g>
</g>
<g>
</g>
</svg>
