<?xml version="1.0" encoding="iso-8859-1"?>
<!-- Generator: Adobe Illustrator 19.0.0, SVG Export Plug-In . SVG Version: 6.00 Build 0)  -->
<svg version="1.1" id="Layer_1" xmlns="http://www.w3.org/2000/svg" xmlns:xlink="http://www.w3.org/1999/xlink" x="0px" y="0px"
	 viewBox="0 0 24 24" style="enable-background:new 0 0 24 24;" xml:space="preserve">
<path d="M23.903,10.496c-0.157-1.211-1.418-2.04-2.625-1.588c-0.452,0.171-0.996-0.083-1.2-0.539
	c-0.244-0.544-0.543-1.065-0.891-1.549c-0.31-0.431-0.251-0.995,0.134-1.313c0.46-0.378,0.717-0.937,0.705-1.532
	c-0.012-0.605-0.297-1.162-0.782-1.53c-0.798-0.604-1.668-1.107-2.587-1.494c-0.248-0.104-0.508-0.157-0.773-0.157
	c-0.958,0-1.766,0.681-1.922,1.619c-0.082,0.493-0.549,0.828-1.075,0.771c-0.584-0.062-1.192-0.062-1.775,0
	c-0.524,0.057-0.993-0.278-1.075-0.771C9.881,1.475,9.073,0.794,8.115,0.794c-0.265,0-0.525,0.053-0.772,0.157
	C6.423,1.338,5.553,1.84,4.755,2.445C4.271,2.813,3.986,3.37,3.974,3.974C3.962,4.57,4.219,5.128,4.679,5.508
	c0.386,0.317,0.443,0.881,0.134,1.311C4.465,7.303,4.165,7.824,3.921,8.368C3.717,8.824,3.213,9.092,2.71,8.903
	C2.49,8.821,2.261,8.779,2.029,8.779c-0.976,0-1.806,0.738-1.933,1.717C0.033,10.992,0,11.499,0,12s0.033,1.008,0.097,1.504
	c0.156,1.21,1.416,2.039,2.625,1.588c0.451-0.171,0.996,0.083,1.2,0.539c0.244,0.544,0.543,1.065,0.891,1.549
	c0.31,0.431,0.251,0.995-0.134,1.313c-0.46,0.378-0.717,0.937-0.705,1.532c0.012,0.605,0.297,1.162,0.782,1.53
	c0.798,0.604,1.668,1.107,2.587,1.494c0.248,0.104,0.508,0.157,0.773,0.157c0.958,0,1.766-0.681,1.922-1.619
	c0.082-0.493,0.55-0.823,1.075-0.771c0.583,0.062,1.191,0.062,1.775,0c0.526-0.053,0.993,0.278,1.075,0.771
	c0.156,0.938,0.964,1.618,1.922,1.619c0.265,0,0.525-0.053,0.772-0.157c0.919-0.387,1.79-0.889,2.587-1.494
	c0.484-0.368,0.77-0.925,0.782-1.529c0.012-0.596-0.245-1.154-0.705-1.534c-0.386-0.317-0.443-0.881-0.134-1.311
	c0.348-0.484,0.648-1.005,0.892-1.549c0.204-0.457,0.709-0.724,1.211-0.535c0.22,0.083,0.449,0.125,0.681,0.125
	c0.976,0,1.806-0.738,1.933-1.717C23.967,13.003,24,12.498,24,12S23.967,10.997,23.903,10.496z M12,16c-2.206,0-4-1.794-4-4
	s1.794-4,4-4s4,1.794,4,4S14.206,16,12,16z"/>
<g>
</g>
<g>
</g>
<g>
</g>
<g>
</g>
<g>
</g>
<g>
</g>
<g>
</g>
<g>
</g>
<g>
</g>
<g>
</g>
<g>
</g>
<g>
</g>
<g>
</g>
<g>
</g>
<g>
</g>
</svg>
