<?xml version="1.0" encoding="iso-8859-1"?>
<!-- Generator: Adobe Illustrator 19.0.0, SVG Export Plug-In . SVG Version: 6.00 Build 0)  -->
<svg version="1.1" id="Layer_1" xmlns="http://www.w3.org/2000/svg" xmlns:xlink="http://www.w3.org/1999/xlink" x="0px" y="0px"
	 viewBox="0 0 24 24" style="enable-background:new 0 0 24 24;" xml:space="preserve">
<g>
	<g>
		<path d="M21.5,21.5h-19C1.122,21.5,0,20.378,0,19V8c0-1.378,1.122-2.5,2.5-2.5h6.279c0.215,0,0.406-0.137,0.475-0.342l0.543-1.633
			C10.002,2.912,10.574,2.5,11.221,2.5h5.559c0.646,0,1.218,0.412,1.423,1.025l0.544,1.633C18.814,5.363,19.005,5.5,19.221,5.5H21.5
			C22.878,5.5,24,6.622,24,8v11C24,20.378,22.878,21.5,21.5,21.5z M2.5,6.5C1.673,6.5,1,7.173,1,8v11c0,0.827,0.673,1.5,1.5,1.5h19
			c0.827,0,1.5-0.673,1.5-1.5V8c0-0.827-0.673-1.5-1.5-1.5h-2.279c-0.646,0-1.218-0.412-1.423-1.025l-0.544-1.633
			C17.186,3.637,16.995,3.5,16.779,3.5h-5.559c-0.215,0-0.406,0.137-0.475,0.342l-0.543,1.633C9.998,6.088,9.426,6.5,8.779,6.5H2.5z
			"/>
	</g>
	<g>
		<path d="M14,19.5c-3.309,0-6-2.691-6-6s2.691-6,6-6s6,2.691,6,6S17.309,19.5,14,19.5z M14,8.5c-2.757,0-5,2.243-5,5s2.243,5,5,5
			s5-2.243,5-5S16.757,8.5,14,8.5z"/>
	</g>
	<g>
		<path d="M14,17.5c-2.206,0-4-1.794-4-4s1.794-4,4-4s4,1.794,4,4S16.206,17.5,14,17.5z M14,10.5c-1.654,0-3,1.346-3,3s1.346,3,3,3
			s3-1.346,3-3S15.654,10.5,14,10.5z"/>
	</g>
	<g>
		<path d="M4.5,4.5h-2C2.224,4.5,2,4.276,2,4s0.224-0.5,0.5-0.5h2C4.776,3.5,5,3.724,5,4S4.776,4.5,4.5,4.5z"/>
	</g>
	<g>
		<path d="M4.5,8.5h-2C2.224,8.5,2,8.276,2,8s0.224-0.5,0.5-0.5h2C4.776,7.5,5,7.724,5,8S4.776,8.5,4.5,8.5z"/>
	</g>
</g>
<g>
</g>
<g>
</g>
<g>
</g>
<g>
</g>
<g>
</g>
<g>
</g>
<g>
</g>
<g>
</g>
<g>
</g>
<g>
</g>
<g>
</g>
<g>
</g>
<g>
</g>
<g>
</g>
<g>
</g>
</svg>
